<?xml version="1.0" standalone="no"?>
<!DOCTYPE svg PUBLIC "-//W3C//DTD SVG 20010904//EN"
 "http://www.w3.org/TR/2001/REC-SVG-20010904/DTD/svg10.dtd">
<svg version="1.0" xmlns="http://www.w3.org/2000/svg"
 width="260.000000pt" height="260.000000pt" viewBox="0 0 260.000000 260.000000"
 preserveAspectRatio="xMidYMid meet">
<metadata>
Created by potrace 1.11, written by Peter Selinger 2001-2013
</metadata>
<g transform="translate(0.000000,260.000000) scale(0.100000,-0.100000)"
fill="#000000" stroke="none">
<path d="M441 2491 c-34 -16 -52 -62 -66 -164 -4 -27 -8 -57 -10 -66 -2 -10
-6 -42 -10 -71 -4 -29 -8 -61 -10 -71 -18 -95 -27 -362 -14 -424 31 -142 125
-267 252 -336 l58 -31 -6 -151 c-4 -84 -8 -172 -10 -197 -3 -52 -14 -250 -20
-365 -6 -116 -15 -269 -20 -355 -6 -86 4 -114 53 -146 30 -21 44 -22 205 -22
273 0 279 6 262 273 -2 33 -6 114 -10 180 -3 66 -8 154 -11 195 -2 41 -7 118
-9 170 -8 155 -15 281 -20 352 l-5 67 54 27 c106 52 193 149 238 266 43 115
43 245 -1 564 -6 44 -13 90 -15 101 -3 12 -8 43 -12 70 -11 78 -13 84 -28 108
-39 60 -182 54 -205 -8 -5 -12 -9 -172 -9 -356 0 -183 -3 -335 -6 -338 -9 -9
-56 -12 -61 -3 -3 4 -7 50 -10 101 -3 52 -7 126 -10 164 -2 39 -7 122 -10 185
-13 259 -17 271 -82 289 -50 14 -56 14 -102 -5 -51 -20 -58 -42 -66 -209 -4
-71 -8 -150 -9 -175 -2 -25 -7 -110 -11 -190 -4 -80 -11 -150 -16 -156 -8 -9
-31 -11 -60 -5 -3 0 -6 156 -6 346 0 317 -1 346 -18 365 -36 40 -106 49 -164
21z"/>
<path d="M2086 2498 c-152 -33 -350 -207 -454 -401 -182 -337 -124 -689 158
-950 67 -62 68 -64 65 -108 -2 -24 -6 -78 -9 -120 -3 -42 -8 -98 -10 -125 -3
-27 -8 -83 -11 -124 -12 -166 -16 -216 -20 -245 -2 -16 -7 -78 -11 -136 -7
-122 5 -161 59 -184 46 -18 318 -19 362 -1 69 29 65 -46 65 1196 0 1240 4
1167 -64 1195 -36 15 -71 16 -130 3z"/>
</g>
</svg>
